<svg width="411" height="242" viewBox="0 0 411 242" fill="none" xmlns="http://www.w3.org/2000/svg">
<mask id="mask0" mask-type="alpha" maskUnits="userSpaceOnUse" x="0" y="0" width="411" height="242">
<rect x="0.820068" y="0.759155" width="410.063" height="240.942" fill="white"/>
</mask>
<g mask="url(#mask0)">
<path d="M-99.2254 150.321C-215.776 195.646 -288.005 85.0258 -302.574 75.3133V-46.0934H646.672V57.2389C625.089 35.1159 616.773 111.573 470.437 75.3133C287.517 29.9881 373.786 163.271 160.318 96.2519C-27.5511 37.2698 17.3251 104.996 -99.2254 150.321Z" fill="#E23237" fill-opacity="0.05"/>
<path d="M-66.7998 149.594C-183.35 194.919 -274.387 52.0305 -288.956 42.318V-52.1623L748.599 -42.4497V24.2436C727.016 2.12059 748.486 60.5037 602.15 24.2436C419.231 -21.0816 490.452 178.681 276.983 111.662C89.1143 52.6801 49.7508 104.269 -66.7998 149.594Z" fill="#E23237" fill-opacity="0.05"/>
<path d="M-274.001 139.882C-390.551 185.207 -481.588 42.318 -496.156 32.6055V-61.8748L541.398 -52.1623V14.5311C519.815 -7.59195 541.285 50.7912 394.949 14.5311C212.03 -30.7941 283.251 168.969 69.7825 101.95C-118.087 42.9676 -157.45 94.5564 -274.001 139.882Z" fill="#E23237" fill-opacity="0.05"/>
<path d="M-239.298 101.428C-355.849 146.753 -428.077 36.133 -442.646 26.4205V-94.9862H506.6V8.34607C485.016 -13.7769 476.7 62.6806 330.364 26.4205C147.445 -18.9047 233.714 114.378 20.2455 47.3591C-167.624 -11.6231 -122.747 56.103 -239.298 101.428Z" fill="#E23237" fill-opacity="0.05"/>
<path d="M-206.872 100.701C-323.423 146.027 -414.459 3.13769 -429.028 -6.57485V-101.055L608.527 -91.3426V-24.6492C586.943 -46.7722 608.413 11.6109 462.078 -24.6492C279.158 -69.9744 350.379 129.789 136.911 62.7694C-50.9582 3.78726 -90.3217 55.3761 -206.872 100.701Z" fill="#E23237" fill-opacity="0.05"/>
<path d="M-414.073 90.9888C-530.624 136.314 -621.66 -6.57484 -636.229 -16.2874V-110.768L401.326 -101.055V-34.3618C379.742 -56.4848 401.212 1.89836 254.877 -34.3618C71.9573 -79.687 143.178 120.076 -70.29 53.0569C-258.159 -5.92528 -297.523 45.6636 -414.073 90.9888Z" fill="#E23237" fill-opacity="0.05"/>
</g>
</svg>
