<svg width="411" height="242" viewBox="0 0 411 242" fill="none" xmlns="http://www.w3.org/2000/svg">
<mask id="mask0" mask-type="alpha" maskUnits="userSpaceOnUse" x="0" y="0" width="411" height="242">
<rect x="0.399902" y="0.759155" width="410.063" height="240.942" fill="white"/>
</mask>
<g mask="url(#mask0)">
<path d="M-99.6456 150.321C-216.196 195.646 -288.425 85.0258 -302.994 75.3133V-46.0934H646.252V57.2389C624.669 35.1159 616.352 111.573 470.017 75.3133C287.097 29.9881 373.366 163.271 159.898 96.2519C-27.9712 37.2698 16.905 104.996 -99.6456 150.321Z" fill="#008FD5" fill-opacity="0.05"/>
<path d="M-67.22 149.594C-183.771 194.919 -274.807 52.0305 -289.376 42.318V-52.1623L748.179 -42.4497V24.2436C726.596 2.12059 748.066 60.5037 601.73 24.2436C418.81 -21.0816 490.031 178.681 276.563 111.662C88.6942 52.6801 49.3306 104.269 -67.22 149.594Z" fill="#008FD5" fill-opacity="0.05"/>
<path d="M-274.421 139.882C-390.971 185.207 -482.008 42.318 -496.577 32.6055V-61.8748L540.978 -52.1623V14.5311C519.395 -7.59195 540.865 50.7912 394.529 14.5311C211.61 -30.7941 282.831 168.969 69.3623 101.95C-118.507 42.9676 -157.87 94.5564 -274.421 139.882Z" fill="#008FD5" fill-opacity="0.05"/>
<path d="M-239.718 101.428C-356.268 146.753 -428.497 36.133 -443.066 26.4205V-94.9862H506.18V8.34607C484.596 -13.7769 476.28 62.6806 329.945 26.4205C147.025 -18.9047 233.294 114.378 19.8256 47.3591C-168.043 -11.6231 -123.167 56.103 -239.718 101.428Z" fill="#008FD5" fill-opacity="0.05"/>
<path d="M-207.292 100.701C-323.843 146.027 -414.879 3.13769 -429.448 -6.57485V-101.055L608.107 -91.3426V-24.6492C586.523 -46.7722 607.993 11.6109 461.658 -24.6492C278.738 -69.9744 349.959 129.789 136.491 62.7694C-51.3781 3.78726 -90.7417 55.3761 -207.292 100.701Z" fill="#008FD5" fill-opacity="0.05"/>
<path d="M-414.493 90.9888C-531.044 136.314 -622.08 -6.57484 -636.649 -16.2874V-110.768L400.906 -101.055V-34.3618C379.322 -56.4848 400.792 1.89836 254.457 -34.3618C71.5374 -79.687 142.758 120.076 -70.71 53.0569C-258.579 -5.92528 -297.943 45.6636 -414.493 90.9888Z" fill="#008FD5" fill-opacity="0.05"/>
</g>
</svg>
