<svg width="195" height="195" viewBox="0 0 195 195" fill="none" xmlns="http://www.w3.org/2000/svg">
<circle cx="97.8555" cy="97.2488" r="97" fill="#000020"/>
<path d="M110.432 52.6148C106.611 46.7499 105.702 45.9709 97.9238 45.9709H97.8328H97.7418C89.964 45.9709 89.0998 46.7499 85.2337 52.6148C81.6404 58.1132 45.9807 123.91 45.9807 125.743C45.9807 128.401 46.663 130.921 49.1191 134.495C51.6208 138.114 55.9418 140.131 59.0802 136.923C61.218 134.77 84.0966 95.0439 95.1492 80.015C96.4683 78.1364 99.1973 78.1364 100.562 80.015C111.615 95.0439 134.493 134.77 136.631 136.923C139.769 140.131 144.09 138.114 146.592 134.495C149.048 130.921 149.73 128.401 149.73 125.743C149.685 123.91 114.025 58.0674 110.432 52.6148Z" fill="#1173B6"/>
</svg>
