<svg width="412" height="242" viewBox="0 0 412 242" fill="none" xmlns="http://www.w3.org/2000/svg">
<mask id="mask0" mask-type="alpha" maskUnits="userSpaceOnUse" x="0" y="0" width="412" height="242">
<rect x="0.970947" y="0.759155" width="410.063" height="240.942" fill="white"/>
</mask>
<g mask="url(#mask0)">
<path d="M-99.0746 150.321C-215.625 195.646 -287.854 85.0258 -302.423 75.3133V-46.0934H646.823V57.2389C625.24 35.1159 616.923 111.573 470.588 75.3133C287.668 29.9881 373.937 163.271 160.469 96.2519C-27.4002 37.2698 17.476 104.996 -99.0746 150.321Z" fill="#E96228" fill-opacity="0.05"/>
<path d="M-66.6489 149.594C-183.2 194.919 -274.236 52.0305 -288.805 42.318V-52.1623L748.75 -42.4497V24.2436C727.167 2.12059 748.637 60.5037 602.301 24.2436C419.382 -21.0816 490.603 178.681 277.134 111.662C89.2652 52.6801 49.9017 104.269 -66.6489 149.594Z" fill="#E96228" fill-opacity="0.05"/>
<path d="M-273.85 139.882C-390.4 185.207 -481.437 42.318 -496.006 32.6055V-61.8748L541.549 -52.1623V14.5311C519.966 -7.59195 541.436 50.7912 395.1 14.5311C212.181 -30.7941 283.402 168.969 69.9333 101.95C-117.936 42.9676 -157.299 94.5564 -273.85 139.882Z" fill="#E96228" fill-opacity="0.05"/>
<path d="M-239.147 101.428C-355.698 146.753 -427.927 36.133 -442.495 26.4205V-94.9862H506.751V8.34607C485.167 -13.7769 476.851 62.6806 330.515 26.4205C147.596 -18.9047 233.865 114.378 20.3964 47.3591C-167.473 -11.6231 -122.596 56.103 -239.147 101.428Z" fill="#E96228" fill-opacity="0.05"/>
<path d="M-206.721 100.701C-323.272 146.027 -414.308 3.13769 -428.877 -6.57485V-101.055L608.677 -91.3426V-24.6492C587.094 -46.7722 608.564 11.6109 462.229 -24.6492C279.309 -69.9744 350.53 129.789 137.062 62.7694C-50.8073 3.78726 -90.1709 55.3761 -206.721 100.701Z" fill="#E96228" fill-opacity="0.05"/>
<path d="M-413.922 90.9888C-530.473 136.314 -621.509 -6.57484 -636.078 -16.2874V-110.768L401.477 -101.055V-34.3618C379.893 -56.4848 401.363 1.89836 255.028 -34.3618C72.1082 -79.687 143.329 120.076 -70.1392 53.0569C-258.008 -5.92528 -297.372 45.6636 -413.922 90.9888Z" fill="#E96228" fill-opacity="0.05"/>
</g>
</svg>
