<svg xmlns="http://www.w3.org/2000/svg" width="194" height="194" viewBox="0 0 194 194">
  <g id="js" transform="translate(-316 -295)">
    <circle id="Ellipse_4" data-name="Ellipse 4" cx="97" cy="97" r="97" transform="translate(316 295)" fill="#f7df1e"/>
    <path id="Path_25" data-name="Path 25" d="M67.312,183.6l13.514-8.179c2.608,4.623,4.979,8.534,10.668,8.534,5.453,0,8.892-2.133,8.892-10.43V117.1h16.6v56.661c0,17.189-10.076,25.013-24.776,25.013-13.276,0-20.982-6.876-24.894-15.174m58.684-1.777L139.507,174c3.557,5.809,8.181,10.076,16.359,10.076,6.877,0,11.261-3.438,11.261-8.18,0-5.69-4.5-7.705-12.091-11.023l-4.148-1.78c-11.973-5.1-19.915-11.5-19.915-25.011,0-12.447,9.483-21.931,24.3-21.931,10.55,0,18.137,3.675,23.589,13.277l-12.922,8.3c-2.846-5.1-5.926-7.112-10.668-7.112-4.861,0-7.943,3.082-7.943,7.112,0,4.979,3.082,6.995,10.194,10.077l4.149,1.778c14.107,6.046,22.049,12.21,22.049,26.078,0,14.938-11.735,23.116-27.5,23.116-15.41,0-25.368-7.349-30.228-16.952" transform="translate(287.171 234.575)"/>
  </g>
</svg>
