<svg width="195" height="195" viewBox="0 0 195 195" fill="none" xmlns="http://www.w3.org/2000/svg">
<path d="M97.8555 194.249C151.427 194.249 194.855 150.82 194.855 97.2488C194.855 43.6772 151.427 0.2488 97.8555 0.2488C44.2838 0.2488 0.855469 43.6772 0.855469 97.2488C0.855469 150.82 44.2838 194.249 97.8555 194.249Z" fill="#E0234E"/>
<path d="M108.409 38.0637C107.55 38.0637 106.752 38.248 106.015 38.4935C107.581 39.5366 108.44 40.9176 108.869 42.4829C108.9 42.6978 108.962 42.8515 108.992 43.066C109.023 43.2502 109.054 43.4345 109.054 43.6184C109.177 46.3191 108.348 46.6566 107.765 48.2525C106.875 50.3089 107.12 52.5185 108.194 54.2983C108.286 54.5132 108.409 54.7588 108.563 54.9737C107.396 47.209 113.872 46.0429 115.069 43.6184C115.161 41.5011 113.412 40.089 112.031 39.1072C110.711 38.3088 109.514 38.0637 108.409 38.0637ZM118.168 39.8128C118.046 40.5189 118.138 40.3346 118.107 40.7032C118.076 40.9487 118.076 41.2556 118.046 41.5011C117.984 41.7462 117.923 41.9918 117.831 42.2373C117.77 42.4834 117.678 42.7285 117.586 42.974C117.463 43.2196 117.371 43.4345 117.248 43.6796C117.156 43.8026 117.095 43.9257 117.002 44.0482L116.818 44.3244C116.665 44.5393 116.512 44.7543 116.358 44.9381C116.174 45.1224 116.02 45.3373 115.805 45.4905V45.5211C115.621 45.6748 115.437 45.8591 115.222 46.0123C114.578 46.5034 113.841 46.8715 113.166 47.332C112.952 47.4852 112.737 47.6082 112.552 47.7925C112.337 47.9457 112.153 48.0989 111.969 48.2836C111.754 48.4674 111.601 48.6517 111.417 48.8666C111.264 49.0505 111.079 49.2659 110.956 49.4803C110.803 49.6953 110.65 49.9097 110.527 50.1246C110.404 50.3707 110.312 50.5851 110.189 50.8302C110.097 51.0763 110.005 51.2912 109.944 51.5363C109.852 51.8125 109.79 52.0581 109.729 52.3036C109.698 52.4266 109.698 52.5798 109.668 52.7028C109.637 52.8254 109.637 52.9484 109.607 53.0709C109.607 53.3165 109.575 53.5927 109.575 53.8383C109.575 54.0226 109.575 54.2064 109.607 54.3907C109.607 54.6362 109.637 54.8818 109.698 55.158C109.729 55.4036 109.79 55.6487 109.852 55.8942C109.944 56.1403 110.005 56.3854 110.098 56.6309C110.158 56.7841 110.251 56.9378 110.312 57.0608L103.254 54.3294C102.075 53.9937 100.888 53.6866 99.6939 53.4084L97.7605 52.9484C95.919 52.5798 94.0468 52.3036 92.1752 52.1198C92.1139 52.1198 92.0828 52.0887 92.022 52.0887C90.1965 51.9048 88.3629 51.8126 86.5281 51.8125C85.1778 51.8125 83.8274 51.8738 82.5081 51.9657C80.6355 52.0887 78.7639 52.3343 76.8913 52.6411C76.4312 52.7028 75.9707 52.7947 75.5107 52.8871C74.5591 53.0709 73.6386 53.2859 72.7487 53.5008L71.3672 53.8689C70.9072 54.0532 70.4773 54.2681 70.048 54.452L69.0351 54.9124C68.9738 54.9431 68.912 54.9431 68.8819 54.9737C68.5746 55.1269 68.2984 55.2499 68.0222 55.4031C67.9482 55.4282 67.8764 55.4591 67.8072 55.4955C67.4698 55.6487 67.1323 55.833 66.8561 55.9866C66.6412 56.0785 66.4262 56.2011 66.2424 56.293C66.1533 56.3494 66.0611 56.4007 65.9662 56.4466C65.69 56.5998 65.4138 56.7535 65.1678 56.9071C64.892 57.0603 64.6465 57.214 64.4315 57.3676C64.2166 57.5208 64.0022 57.6438 63.8179 57.797C63.7872 57.8276 63.7566 57.8276 63.7255 57.8583C63.5417 57.9813 63.3267 58.1345 63.1425 58.2881L63.0812 58.3494L62.6211 58.7175C62.5594 58.7486 62.4981 58.8099 62.4369 58.8405C62.2837 58.9631 62.13 59.1167 61.9764 59.2398C61.9457 59.3006 61.8845 59.3317 61.8538 59.3623C61.6695 59.5466 61.4852 59.6998 61.3014 59.8841C61.2703 59.8841 61.2703 59.9147 61.2401 59.9453C61.0559 60.0985 60.8716 60.2828 60.6877 60.4671C60.6566 60.4977 60.6566 60.5284 60.626 60.5284C60.4728 60.6816 60.3196 60.8352 60.166 61.0195C60.1047 61.0808 60.0128 61.1421 59.951 61.2033C59.7979 61.3876 59.6136 61.5719 59.4293 61.7557C59.3986 61.8175 59.3374 61.8481 59.3063 61.9094C59.0612 62.155 58.8462 62.4005 58.6007 62.6461L58.5088 62.738C58.0176 63.2598 57.4959 63.7815 56.9435 64.242C56.3993 64.7276 55.8252 65.1786 55.2245 65.5924C54.6294 66.0097 54.0151 66.3988 53.3835 66.7585C52.7571 67.102 52.1116 67.4093 51.4501 67.679C50.7972 67.9564 50.1314 68.2023 49.4549 68.4157C48.1663 68.6919 46.8461 69.2136 45.7111 69.3056C45.4651 69.3056 45.1894 69.3668 44.9438 69.3975C44.6676 69.4592 44.422 69.5205 44.1765 69.5818L43.4398 69.858C43.1942 69.9499 42.9491 70.0729 42.7035 70.1954C42.4886 70.3486 42.243 70.4716 42.0281 70.6253C41.8132 70.7785 41.5987 70.9628 41.4144 71.1471C41.1995 71.3002 40.9846 71.5152 40.8008 71.6995C40.6165 71.9144 40.4322 72.0987 40.279 72.3131C40.1258 72.5587 39.9415 72.7736 39.8185 73.0187C39.6653 73.2341 39.5117 73.4792 39.3887 73.7248C39.2661 74.001 39.1436 74.2465 39.0512 74.5232C38.9544 74.7874 38.8623 75.0533 38.775 75.3207C38.7137 75.5663 38.6524 75.8118 38.6218 76.0574C38.6218 76.088 38.5907 76.1187 38.5907 76.1493C38.5294 76.4255 38.5294 76.7941 38.4988 76.9779C38.4681 77.1929 38.4375 77.3771 38.4375 77.5916C38.4375 77.7146 38.4375 77.8678 38.4681 77.9908C38.4988 78.2057 38.5294 78.39 38.5912 78.5739C38.6524 78.7581 38.7137 78.942 38.8061 79.1263V79.1569C38.898 79.3412 39.0205 79.5255 39.1436 79.7093C39.2661 79.8936 39.3891 80.0779 39.5428 80.2617C39.696 80.4149 39.8798 80.5996 40.0641 80.7528C40.2484 80.9371 40.4326 81.0903 40.6471 81.244C41.3838 81.8883 41.5681 82.1032 42.5192 82.5943C42.6724 82.6862 42.8261 82.7475 43.0104 82.8399C43.041 82.8399 43.0717 82.8705 43.1023 82.8705C43.1023 82.9318 43.1023 82.9624 43.1334 83.0237C43.164 83.2697 43.2253 83.5149 43.2866 83.7604C43.3479 84.0366 43.4398 84.2822 43.5321 84.4971C43.6241 84.6814 43.6853 84.8652 43.7777 85.0495C43.8083 85.1108 43.839 85.1725 43.8696 85.2027C43.9926 85.4487 44.1156 85.6632 44.2382 85.8781L44.6982 86.5224C44.8514 86.7067 45.0357 86.9216 45.22 87.1059C45.4043 87.2898 45.5886 87.4434 45.803 87.6272C45.803 87.6272 45.8341 87.6583 45.8643 87.6583C46.0486 87.8115 46.2329 87.9647 46.4167 88.0877C46.6316 88.2409 46.8466 88.3639 47.0921 88.4869C47.3071 88.6095 47.5526 88.7325 47.7977 88.8244C47.982 88.9163 48.1969 88.9776 48.4119 89.0393C48.4425 89.07 48.4731 89.07 48.5344 89.1006C48.6574 89.1313 48.8106 89.1619 48.9336 89.1925C48.8412 90.8497 48.8106 92.415 49.0562 92.9674C49.3324 93.5811 50.6827 91.7094 52.0331 89.5611C51.8493 91.6783 51.7267 94.1642 52.0331 94.9009C52.3706 95.6682 54.2121 93.2743 55.808 90.6348C77.5671 85.6019 97.423 100.64 99.5101 121.877C99.1109 118.563 95.0296 116.721 93.1574 117.182C92.2365 119.453 90.6716 122.368 88.1552 124.179C88.3696 122.153 88.2777 120.066 87.8479 118.041C87.1729 120.864 85.8532 123.504 84.0423 125.775C81.1271 125.99 78.2119 124.578 76.6768 122.46C76.5542 122.368 76.5236 122.184 76.4317 122.061C76.3393 121.847 76.2474 121.632 76.1857 121.417C76.0963 121.211 76.0345 120.994 76.0018 120.772C75.9712 120.557 75.9712 120.342 75.9712 120.097V119.637C76.0018 119.422 76.0631 119.207 76.1244 118.992C76.1857 118.778 76.2474 118.563 76.3393 118.348C76.4623 118.133 76.5542 117.918 76.7074 117.703C77.2292 116.23 77.2292 115.033 76.278 114.327C76.0938 114.207 75.8986 114.105 75.695 114.021C75.572 113.99 75.4188 113.928 75.2958 113.898C75.2039 113.867 75.1426 113.836 75.0502 113.806C74.8358 113.744 74.6208 113.683 74.4059 113.652C74.1965 113.592 73.9796 113.561 73.7616 113.56C73.5467 113.529 73.3011 113.499 73.0862 113.499C72.933 113.499 72.7798 113.529 72.6257 113.529C72.3806 113.529 72.1657 113.56 71.9507 113.622C71.7358 113.652 71.5209 113.683 71.3064 113.744C71.0915 113.806 70.8766 113.867 70.6616 113.959C70.4472 114.051 70.2624 114.144 70.048 114.235C69.8637 114.327 69.6798 114.45 69.4649 114.542C62.3143 119.208 66.5799 130.133 71.4596 133.294C69.6181 133.631 67.746 134.03 67.2247 134.429L67.1634 134.491C68.4827 135.289 69.8637 135.964 71.3064 136.547C73.2705 137.191 75.3575 137.774 76.278 138.02V138.05C78.8207 138.572 81.4207 138.758 84.0117 138.603C97.6073 137.651 108.748 127.309 110.773 113.683C110.834 113.959 110.896 114.205 110.957 114.481C111.049 115.033 111.172 115.616 111.234 116.199V116.231C111.295 116.507 111.325 116.783 111.357 117.029V117.151C111.387 117.427 111.418 117.703 111.418 117.949C111.448 118.287 111.479 118.624 111.479 118.962V119.453C111.479 119.606 111.51 119.791 111.51 119.944C111.51 120.128 111.479 120.312 111.479 120.496V120.926C111.479 121.141 111.448 121.325 111.448 121.54C111.448 121.663 111.448 121.785 111.417 121.939C111.417 122.153 111.387 122.368 111.387 122.614C111.356 122.706 111.356 122.798 111.356 122.89C111.325 123.136 111.295 123.351 111.264 123.596C111.264 123.688 111.264 123.78 111.233 123.872C111.202 124.179 111.141 124.455 111.111 124.762V124.823C111.049 125.1 110.988 125.407 110.926 125.683V125.775L110.742 126.604C110.742 126.634 110.711 126.696 110.711 126.726C110.65 127.002 110.589 127.279 110.496 127.555V127.647C110.404 127.954 110.313 128.23 110.251 128.506C110.22 128.537 110.22 128.568 110.22 128.568L109.944 129.488C109.821 129.796 109.73 130.072 109.607 130.379C109.484 130.685 109.392 130.992 109.269 131.268C109.146 131.575 109.023 131.852 108.901 132.158H108.87C108.747 132.435 108.624 132.741 108.471 133.018C108.446 133.092 108.415 133.163 108.379 133.233C108.348 133.264 108.348 133.294 108.317 133.325C106.323 137.345 103.376 140.874 99.6939 143.636C99.4479 143.789 99.2028 143.974 98.9572 144.158C98.8959 144.219 98.804 144.25 98.7423 144.311C98.5273 144.465 98.3129 144.619 98.0673 144.772L98.1592 144.956H98.1899L99.479 144.772H99.5096C100.308 144.649 101.106 144.496 101.903 144.342C102.118 144.312 102.364 144.25 102.578 144.189C102.732 144.158 102.855 144.127 103.008 144.097C103.223 144.066 103.438 144.005 103.653 143.974C103.837 143.912 104.021 143.882 104.205 143.821C107.274 143.084 110.251 142.071 113.105 140.874C108.226 147.534 101.689 152.905 94.0468 156.434C97.5762 156.188 101.106 155.605 104.512 154.624C116.88 150.971 127.284 142.654 133.514 131.453C132.249 138.558 129.43 145.297 125.258 151.186C128.232 149.224 130.98 146.939 133.452 144.373C140.327 137.192 144.838 128.077 146.373 118.287C147.42 123.144 147.72 128.132 147.263 133.079C169.421 102.174 149.104 70.1346 140.603 61.6949C140.572 61.6337 140.542 61.603 140.542 61.5417C140.511 61.5724 140.511 61.5724 140.511 61.603C140.511 61.5719 140.511 61.5719 140.48 61.5417C140.48 61.9099 140.45 62.278 140.419 62.6465C140.327 63.3521 140.235 64.0276 140.112 64.703C139.959 65.3779 139.775 66.0529 139.59 66.7283C139.372 67.3926 139.126 68.0477 138.854 68.6919C138.577 69.306 138.271 69.9503 137.933 70.5645C137.596 71.1475 137.228 71.7612 136.828 72.3136C136.434 72.8843 136.014 73.4373 135.57 73.9708C135.109 74.5232 134.619 75.0143 134.128 75.5055C133.839 75.7698 133.542 76.0256 133.238 76.2723C132.992 76.4873 132.777 76.6716 132.532 76.8865C131.979 77.3159 131.427 77.7151 130.813 78.0832C130.23 78.4513 129.616 78.8199 129.003 79.1267C128.358 79.4336 127.713 79.7098 127.069 79.986C126.415 80.2329 125.749 80.4479 125.074 80.6303C124.396 80.8129 123.71 80.9666 123.018 81.0908C122.312 81.2138 121.607 81.2751 120.931 81.3363C120.44 81.367 119.949 81.3976 119.458 81.3976C118.752 81.3976 118.046 81.3363 117.371 81.2751C116.665 81.2133 115.959 81.1214 115.284 80.9678C114.579 80.8452 113.903 80.6614 113.228 80.4465H113.197C113.873 80.3847 114.548 80.3234 115.223 80.2004C115.915 80.0797 116.602 79.9261 117.279 79.7404C117.954 79.558 118.62 79.343 119.274 79.0961C119.949 78.8501 120.593 78.5437 121.207 78.2364C121.852 77.93 122.435 77.5921 123.048 77.224C123.632 76.8247 124.215 76.4255 124.767 75.9961C125.317 75.5687 125.84 75.1075 126.332 74.6151C126.854 74.1546 127.315 73.6333 127.775 73.1111C128.224 72.5737 128.653 72.021 129.064 71.4539C129.125 71.362 129.187 71.2394 129.248 71.1475C129.555 70.6564 129.862 70.1653 130.138 69.6741C130.475 69.0656 130.783 68.4408 131.059 67.802C131.336 67.1598 131.582 66.5045 131.795 65.8384C132.01 65.1932 132.164 64.5182 132.317 63.8433C132.44 63.1377 132.563 62.4623 132.624 61.7868C132.685 61.0813 132.747 60.3757 132.747 59.7002C132.747 59.2091 132.716 58.718 132.685 58.2269C132.624 57.5213 132.532 56.8459 132.439 56.1704C132.319 55.4782 132.165 54.7922 131.98 54.1145C131.764 53.4702 131.55 52.7947 131.304 52.1504C131.058 51.5061 130.752 50.8613 130.445 50.2477C130.107 49.634 129.77 49.0198 129.402 48.4373C129.01 47.862 128.6 47.299 128.174 46.7489C127.712 46.2196 127.241 45.6977 126.762 45.1837C126.504 44.9204 126.237 44.6647 125.964 44.4168C124.589 43.3489 123.166 42.3452 121.698 41.4087C121.5 41.2944 121.295 41.1921 121.084 41.1024C120.072 40.4576 119.121 40.1201 118.169 39.8133L118.168 39.8128Z" fill="white"/>
</svg>
