<svg width="411" height="242" viewBox="0 0 411 242" fill="none" xmlns="http://www.w3.org/2000/svg">
<mask id="mask0" mask-type="alpha" maskUnits="userSpaceOnUse" x="0" y="0" width="411" height="242">
<rect x="0.215332" y="0.759155" width="410.063" height="240.942" fill="white"/>
</mask>
<g mask="url(#mask0)">
<path d="M-99.8302 150.321C-216.381 195.646 -288.61 85.0258 -303.178 75.3133V-46.0934H646.068V57.2389C624.484 35.1159 616.168 111.573 469.832 75.3133C286.913 29.9881 373.182 163.271 159.713 96.2519C-28.1558 37.2698 16.7204 104.996 -99.8302 150.321Z" fill="#E0234E" fill-opacity="0.05"/>
<path d="M-67.4045 149.594C-183.955 194.919 -274.992 52.0305 -289.56 42.318V-52.1623L747.994 -42.4497V24.2436C726.411 2.12059 747.881 60.5037 601.545 24.2436C418.626 -21.0816 489.847 178.681 276.379 111.662C88.5096 52.6801 49.146 104.269 -67.4045 149.594Z" fill="#E0234E" fill-opacity="0.05"/>
<path d="M-274.605 139.882C-391.156 185.207 -482.192 42.318 -496.761 32.6055V-61.8748L540.793 -52.1623V14.5311C519.21 -7.59195 540.68 50.7912 394.345 14.5311C211.425 -30.7941 282.646 168.969 69.1777 101.95C-118.691 42.9676 -158.055 94.5564 -274.605 139.882Z" fill="#E0234E" fill-opacity="0.05"/>
<path d="M-239.902 101.428C-356.453 146.753 -428.682 36.133 -443.251 26.4205V-94.9862H505.995V8.34607C484.412 -13.7769 476.096 62.6806 329.76 26.4205C146.84 -18.9047 233.109 114.378 19.641 47.3591C-168.228 -11.6231 -123.352 56.103 -239.902 101.428Z" fill="#E0234E" fill-opacity="0.05"/>
<path d="M-207.477 100.701C-324.027 146.027 -415.064 3.13769 -429.633 -6.57485V-101.055L607.922 -91.3426V-24.6492C586.339 -46.7722 607.809 11.6109 461.473 -24.6492C278.554 -69.9744 349.775 129.789 136.306 62.7694C-51.5627 3.78726 -90.9262 55.3761 -207.477 100.701Z" fill="#E0234E" fill-opacity="0.05"/>
<path d="M-414.678 90.9888C-531.228 136.314 -622.265 -6.57484 -636.833 -16.2874V-110.768L400.721 -101.055V-34.3618C379.138 -56.4848 400.608 1.89836 254.272 -34.3618C71.3528 -79.687 142.574 120.076 -70.8945 53.0569C-258.764 -5.92528 -298.127 45.6636 -414.678 90.9888Z" fill="#E0234E" fill-opacity="0.05"/>
</g>
</svg>
