<svg width="411" height="242" viewBox="0 0 411 242" fill="none" xmlns="http://www.w3.org/2000/svg">
<mask id="mask0" mask-type="alpha" maskUnits="userSpaceOnUse" x="0" y="0" width="411" height="242">
<rect x="0.203369" y="0.759155" width="410.063" height="240.942" fill="white"/>
</mask>
<g mask="url(#mask0)">
<path d="M-99.8421 150.321C-216.393 195.646 -288.622 85.0258 -303.19 75.3133V-46.0934H646.056V57.2389C624.472 35.1159 616.156 111.573 469.82 75.3133C286.901 29.9881 373.17 163.271 159.701 96.2519C-28.1678 37.2698 16.7084 104.996 -99.8421 150.321Z" fill="#43853D" fill-opacity="0.05"/>
<path d="M-67.4165 149.594C-183.967 194.919 -275.003 52.0305 -289.572 42.318V-52.1623L747.982 -42.4497V24.2436C726.399 2.12059 747.869 60.5037 601.533 24.2436C418.614 -21.0816 489.835 178.681 276.367 111.662C88.4977 52.6801 49.1341 104.269 -67.4165 149.594Z" fill="#43853D" fill-opacity="0.05"/>
<path d="M-274.617 139.882C-391.168 185.207 -482.204 42.318 -496.773 32.6055V-61.8748L540.781 -52.1623V14.5311C519.198 -7.59195 540.668 50.7912 394.333 14.5311C211.413 -30.7941 282.634 168.969 69.1658 101.95C-118.703 42.9676 -158.067 94.5564 -274.617 139.882Z" fill="#43853D" fill-opacity="0.05"/>
<path d="M-239.915 101.428C-356.465 146.753 -428.694 36.133 -443.263 26.4205V-94.9862H505.983V8.34607C484.4 -13.7769 476.083 62.6806 329.748 26.4205C146.828 -18.9047 233.097 114.378 19.6288 47.3591C-168.24 -11.6231 -123.364 56.103 -239.915 101.428Z" fill="#43853D" fill-opacity="0.05"/>
<path d="M-207.489 100.701C-324.04 146.027 -415.076 3.13769 -429.645 -6.57485V-101.055L607.91 -91.3426V-24.6492C586.326 -46.7722 607.797 11.6109 461.461 -24.6492C278.541 -69.9744 349.762 129.789 136.294 62.7694C-51.5749 3.78726 -90.9384 55.3761 -207.489 100.701Z" fill="#43853D" fill-opacity="0.05"/>
<path d="M-414.69 90.9888C-531.241 136.314 -622.277 -6.57484 -636.846 -16.2874V-110.768L400.709 -101.055V-34.3618C379.126 -56.4848 400.596 1.89836 254.26 -34.3618C71.3406 -79.687 142.562 120.076 -70.9067 53.0569C-258.776 -5.92528 -298.139 45.6636 -414.69 90.9888Z" fill="#43853D" fill-opacity="0.05"/>
</g>
</svg>
