<svg xmlns="http://www.w3.org/2000/svg" width="194" height="194" viewBox="0 0 194 194">
  <g id="node" transform="translate(-639 -700)">
    <circle id="Ellipse_14" data-name="Ellipse 14" cx="97" cy="97" r="97" transform="translate(639 700)" fill="#8cc84b"/>
    <g id="nodejs-icon" transform="translate(679.885 735.194)">
      <path id="Path_73" data-name="Path 73" d="M51.467,1.9a10.333,10.333,0,0,1,10.088,0Q84.591,14.916,107.63,27.925a9.485,9.485,0,0,1,4.791,8.169V88.3a9.588,9.588,0,0,1-5.148,8.347q-22.961,12.945-45.911,25.9a10.04,10.04,0,0,1-10.2-.284q-6.884-3.991-13.776-7.965a8.11,8.11,0,0,1-2.657-1.913c.585-.789,1.632-.887,2.483-1.232a32.153,32.153,0,0,0,5.435-2.536,1.268,1.268,0,0,1,1.415.085c3.924,2.25,7.814,4.565,11.751,6.794.84.485,1.69-.159,2.408-.559Q80.753,102.206,103.3,89.5a1.491,1.491,0,0,0,.819-1.468q.016-25.834.005-51.672a1.615,1.615,0,0,0-.962-1.611Q80.281,21.865,57.41,8.963a1.589,1.589,0,0,0-1.8,0Q32.736,21.854,9.867,34.758a1.6,1.6,0,0,0-.967,1.6q0,25.834,0,51.674a1.461,1.461,0,0,0,.829,1.45q6.1,3.462,12.218,6.9c2.294,1.235,5.111,1.969,7.639,1.023a5.8,5.8,0,0,0,3.752-5.445c.021-17.122-.011-34.247.016-51.367a1.289,1.289,0,0,1,1.4-1.317c1.956-.013,3.914-.026,5.869.005A1.354,1.354,0,0,1,41.9,40.85c-.008,17.231.021,34.462-.013,51.693.005,4.592-1.881,9.589-6.129,11.836-5.233,2.711-11.7,2.136-16.871-.463-4.475-2.234-8.746-4.87-13.142-7.263A9.566,9.566,0,0,1,.6,88.3V36.093a9.5,9.5,0,0,1,4.955-8.272Q28.515,14.865,51.467,1.9Z" transform="translate(0)" fill="#fff"/>
      <path id="Path_74" data-name="Path 74" d="M123.276,85.772c6.675-.43,13.821-.255,19.828,3.034,4.651,2.52,7.229,7.809,7.311,12.975a1.4,1.4,0,0,1-1.524,1.034c-1.937,0-3.874.026-5.81-.013a1.5,1.5,0,0,1-1.4-1.452,8.845,8.845,0,0,0-4.231-6.113c-3.572-1.788-7.713-1.7-11.608-1.661-2.843.151-5.9.4-8.31,2.069a5.265,5.265,0,0,0-1.751,5.882c.622,1.479,2.329,1.956,3.725,2.4,8.044,2.1,16.569,1.895,24.459,4.663,3.267,1.129,6.463,3.323,7.581,6.743,1.463,4.584.822,10.064-2.44,13.744-2.645,3.029-6.5,4.677-10.339,5.572a49.675,49.675,0,0,1-15.607.663c-4.881-.556-9.96-1.839-13.728-5.164a14.407,14.407,0,0,1-4.64-11.364,1.3,1.3,0,0,1,1.425-1.148c1.95-.016,3.9-.021,5.851,0a1.367,1.367,0,0,1,1.4,1.352c.36,2.355,1.245,4.827,3.3,6.224,3.964,2.557,8.937,2.382,13.476,2.454,3.76-.167,7.981-.217,11.05-2.7a6.1,6.1,0,0,0,1.661-5.829c-.474-1.723-2.276-2.525-3.823-3.05-7.941-2.512-16.561-1.6-24.425-4.441-3.193-1.128-6.28-3.262-7.507-6.542-1.712-4.642-.927-10.384,2.676-13.94,3.513-3.537,8.585-4.9,13.408-5.387Z" transform="translate(-58.458 -47.707)" fill="#fff"/>
    </g>
  </g>
</svg>
