<svg width="195" height="195" viewBox="0 0 195 195" fill="none" xmlns="http://www.w3.org/2000/svg">
<circle cx="97.0189" cy="97.2488" r="97" fill="#282C34"/>
<path d="M139.232 76.8212C137.841 76.3441 136.439 75.9022 135.027 75.4958C135.261 74.5436 135.477 73.5872 135.676 72.627C138.859 57.1713 136.778 44.7202 129.671 40.6215C122.857 36.6904 111.712 40.7892 100.457 50.5866C99.3476 51.5543 98.2631 52.5498 97.2043 53.5722C96.4952 52.8923 95.7736 52.2257 95.0399 51.5726C83.2437 41.0956 71.4198 36.6812 64.3202 40.7921C57.5124 44.7341 55.496 56.4398 58.3617 71.0871C58.6468 72.5377 58.9687 73.9807 59.3271 75.4148C57.6541 75.8902 56.0383 76.3967 54.4924 76.9357C40.6631 81.7584 31.8309 89.3174 31.8309 97.1575C31.8309 105.255 41.3117 113.378 55.7169 118.302C56.8849 118.7 58.0627 119.068 59.249 119.407C58.8636 120.952 58.5215 122.507 58.2229 124.071C55.4908 138.464 57.6246 149.893 64.4144 153.81C71.4273 157.855 83.1975 153.697 94.6589 143.676C95.5648 142.884 96.4741 142.044 97.3847 141.163C98.5315 142.27 99.709 143.345 100.916 144.386C112.018 153.942 122.982 157.8 129.766 153.872C136.772 149.815 139.049 137.538 136.093 122.601C135.867 121.46 135.604 120.295 135.309 119.108C136.136 118.864 136.947 118.612 137.738 118.35C152.714 113.387 162.456 105.364 162.456 97.1575C162.456 89.2891 153.34 81.6791 139.232 76.8212V76.8212Z" fill="#53C1DE"/>
<path d="M135.983 113.052C135.269 113.288 134.536 113.516 133.789 113.738C132.136 108.503 129.904 102.936 127.175 97.1852C129.78 91.5703 131.925 86.0751 133.532 80.8736C134.868 81.2611 136.165 81.6687 137.415 82.0995C149.503 86.2613 156.876 92.4157 156.876 97.1575C156.876 102.209 148.913 108.766 135.984 113.052H135.983ZM130.618 123.685C131.926 130.29 132.112 136.262 131.246 140.93C130.468 145.125 128.904 147.921 126.969 149.041C122.853 151.425 114.049 148.327 104.555 140.155C103.467 139.218 102.37 138.217 101.271 137.159C104.951 133.132 108.63 128.451 112.22 123.252C118.535 122.692 124.501 121.775 129.911 120.524C130.177 121.6 130.414 122.654 130.618 123.685V123.685ZM76.3637 148.63C72.3418 150.05 69.1386 150.091 67.2025 148.974C63.0818 146.598 61.3695 137.421 63.7056 125.112C63.9834 123.658 64.3015 122.211 64.6595 120.774C70.0098 121.958 75.9324 122.81 82.2626 123.323C85.8763 128.41 89.6612 133.086 93.4755 137.181C92.6648 137.965 91.835 138.729 90.9867 139.473C85.9185 143.905 80.8399 147.048 76.3643 148.63H76.3637ZM57.5216 113.02C51.1521 110.843 45.892 108.013 42.2864 104.925C39.0467 102.149 37.4107 99.3936 37.4107 97.1575C37.4107 92.4001 44.5022 86.3313 56.3296 82.2065C57.8141 81.6911 59.3134 81.2192 60.8255 80.7915C62.4604 86.1098 64.6045 91.6703 67.1921 97.2934C64.571 103 62.3962 108.649 60.7463 114.03C59.6633 113.72 58.5881 113.383 57.5216 113.02V113.02ZM63.838 70.015C61.3828 57.4651 63.013 47.9983 67.1158 45.6228C71.4862 43.0924 81.1492 46.7007 91.3342 55.7465C91.9851 56.3247 92.6389 56.9302 93.2939 57.5564C89.4993 61.6326 85.7492 66.2731 82.1667 71.3306C76.0232 71.9002 70.1422 72.815 64.7358 74.0403C64.4027 72.7061 64.1034 71.3638 63.838 70.0145V70.015ZM120.184 83.9321C118.907 81.7257 117.582 79.547 116.212 77.3977C120.38 77.9239 124.373 78.6236 128.122 79.48C126.997 83.089 125.594 86.8627 123.941 90.7312C122.734 88.4401 121.481 86.1732 120.184 83.9321V83.9321ZM97.2059 61.5453C99.7796 64.3342 102.357 67.4487 104.893 70.8275C99.7496 70.5844 94.5977 70.5832 89.4542 70.824C91.9921 67.4765 94.5918 64.3666 97.2059 61.5453V61.5453ZM74.0808 83.9702C72.7993 86.1935 71.57 88.4465 70.3936 90.7272C68.7686 86.8719 67.3783 83.0814 66.2429 79.421C69.9699 78.5866 73.9443 77.9048 78.0853 77.3873C76.6991 79.55 75.3639 81.7449 74.0808 83.9702V83.9702ZM78.2044 117.326C73.9264 116.848 69.8918 116.201 66.166 115.39C67.3193 111.665 68.7403 107.793 70.4 103.855C71.5813 106.137 72.8161 108.392 74.1033 110.616C75.4168 112.885 76.7842 115.122 78.2044 117.326V117.326ZM97.3603 133.164C94.7155 130.309 92.0776 127.152 89.501 123.756C92.0019 123.854 94.5519 123.904 97.1435 123.904C99.8062 123.904 102.438 123.844 105.029 123.729C102.485 127.187 99.9167 130.348 97.3603 133.164ZM123.995 103.654C125.74 107.635 127.212 111.486 128.381 115.148C124.593 116.013 120.505 116.709 116.196 117.226C117.577 115.037 118.914 112.82 120.206 110.577C121.52 108.298 122.783 105.99 123.995 103.654V103.654ZM115.372 107.789C113.393 111.227 111.303 114.6 109.106 117.903C105.23 118.18 101.225 118.322 97.1435 118.322C93.0789 118.322 89.1247 118.196 85.3167 117.949C83.0618 114.654 80.9323 111.275 78.9328 107.819C76.9426 104.382 75.0836 100.87 73.3599 97.2916C75.0792 93.712 76.9326 90.1983 78.916 86.758V86.7592C80.8988 83.3182 83.0115 79.9537 85.2497 76.6731C89.1345 76.3794 93.1176 76.2256 97.1441 76.2256C101.188 76.2256 105.177 76.3805 109.06 76.6766C111.276 79.9522 113.375 83.3049 115.354 86.7285C117.345 90.1611 119.223 93.6576 120.986 97.2124C119.241 100.803 117.369 104.331 115.373 107.789H115.372ZM126.884 45.4569C131.258 47.9804 132.959 58.1561 130.211 71.5006C130.031 72.3699 129.835 73.2359 129.624 74.0981C124.204 72.8474 118.319 71.9164 112.158 71.3381C108.569 66.2257 104.85 61.5771 101.116 57.5535C102.095 56.6101 103.096 55.6912 104.12 54.7975C113.764 46.4023 122.777 43.0878 126.884 45.4569V45.4569Z" fill="#282C34"/>
<path d="M97.1435 85.4899C103.586 85.4899 108.808 90.7139 108.808 97.1574C108.808 103.602 103.586 108.826 97.1435 108.826C90.7018 108.826 85.4792 103.602 85.4792 97.1574C85.4792 90.7139 90.7018 85.4899 97.1435 85.4899" fill="#53C1DE"/>
</svg>
