<svg width="411" height="242" viewBox="0 0 411 242" fill="none" xmlns="http://www.w3.org/2000/svg">
<mask id="mask0" mask-type="alpha" maskUnits="userSpaceOnUse" x="0" y="0" width="411" height="242">
<rect x="0.682129" y="0.759155" width="410.063" height="240.942" fill="white"/>
</mask>
<g mask="url(#mask0)">
<path d="M-99.3634 150.321C-215.914 195.646 -288.143 85.0258 -302.712 75.3133V-46.0934H646.534V57.2389C624.951 35.1159 616.635 111.573 470.299 75.3133C287.38 29.9881 373.648 163.271 160.18 96.2519C-27.689 37.2698 17.1872 104.996 -99.3634 150.321Z" fill="#61DAFB" fill-opacity="0.05"/>
<path d="M-66.9377 149.594C-183.488 194.919 -274.525 52.0305 -289.094 42.318V-52.1623L748.461 -42.4497V24.2436C726.878 2.12059 748.348 60.5037 602.012 24.2436C419.093 -21.0816 490.314 178.681 276.845 111.662C88.9764 52.6801 49.6128 104.269 -66.9377 149.594Z" fill="#61DAFB" fill-opacity="0.05"/>
<path d="M-274.139 139.882C-390.689 185.207 -481.726 42.318 -496.294 32.6055V-61.8748L541.26 -52.1623V14.5311C519.677 -7.59195 541.147 50.7912 394.811 14.5311C211.892 -30.7941 283.113 168.969 69.6445 101.95C-118.225 42.9676 -157.588 94.5564 -274.139 139.882Z" fill="#61DAFB" fill-opacity="0.05"/>
<path d="M-239.436 101.428C-355.986 146.753 -428.215 36.133 -442.784 26.4205V-94.9862H506.462V8.34607C484.878 -13.7769 476.562 62.6806 330.227 26.4205C147.307 -18.9047 233.576 114.378 20.1075 47.3591C-167.762 -11.6231 -122.885 56.103 -239.436 101.428Z" fill="#61DAFB" fill-opacity="0.05"/>
<path d="M-207.01 100.701C-323.561 146.027 -414.597 3.13769 -429.166 -6.57485V-101.055L608.389 -91.3426V-24.6492C586.805 -46.7722 608.275 11.6109 461.94 -24.6492C279.02 -69.9744 350.241 129.789 136.773 62.7694C-51.0961 3.78726 -90.4597 55.3761 -207.01 100.701Z" fill="#61DAFB" fill-opacity="0.05"/>
<path d="M-414.211 90.9888C-530.762 136.314 -621.798 -6.57484 -636.367 -16.2874V-110.768L401.188 -101.055V-34.3618C379.604 -56.4848 401.074 1.89836 254.739 -34.3618C71.8193 -79.687 143.04 120.076 -70.428 53.0569C-258.297 -5.92528 -297.661 45.6636 -414.211 90.9888Z" fill="#61DAFB" fill-opacity="0.05"/>
</g>
</svg>
