<svg width="195" height="195" viewBox="0 0 195 195" fill="none" xmlns="http://www.w3.org/2000/svg">
<circle cx="97.7733" cy="97.2488" r="97" fill="#282C34"/>
<path d="M121.869 114.8C126.287 114.342 129.64 110.533 129.487 105.962C129.335 101.391 125.526 97.734 120.955 97.734H120.65C115.926 97.8865 112.27 101.848 112.422 106.571C112.575 108.857 113.489 110.838 114.86 112.209C109.68 122.418 101.757 129.884 89.8723 136.131C81.7969 140.398 73.4171 141.921 65.0372 140.855C58.1806 139.941 52.8478 136.894 49.4953 131.865C44.6199 124.399 44.163 116.323 48.2769 108.248C51.172 102.457 55.7425 98.191 58.6376 96.0578C58.0281 94.077 57.1138 90.725 56.6568 88.2873C34.5638 104.286 36.8495 125.923 43.5536 136.131C48.5814 143.75 58.79 148.474 70.065 148.474C73.1121 148.474 76.1592 148.169 79.2068 147.407C98.7096 143.598 113.489 132.017 121.869 114.8V114.8ZM148.685 95.9058C137.105 82.3446 120.041 74.8786 100.538 74.8786H98.1002C96.7289 72.136 93.8338 70.3073 90.6342 70.3073H90.3293C85.6064 70.4597 81.9499 74.4212 82.1019 79.145C82.2544 83.7159 86.0634 87.3729 90.6342 87.3729H90.9387C94.2908 87.2205 97.1859 85.0872 98.4047 82.1922H101.147C112.727 82.1922 123.697 85.5442 133.601 92.0963C141.219 97.1246 146.705 103.677 149.752 111.6C152.342 117.999 152.189 124.246 149.447 129.58C145.181 137.655 138.02 142.074 128.573 142.074C122.478 142.074 116.689 140.245 113.641 138.874C111.965 140.398 108.918 142.835 106.785 144.36C113.337 147.407 120.041 149.083 126.44 149.083C141.067 149.083 151.885 141.007 155.999 132.932C160.417 124.094 160.112 108.857 148.685 95.9058V95.9058ZM71.2838 117.389C71.4363 121.961 75.2453 125.617 79.8162 125.617H80.1211C84.8445 125.465 88.501 121.503 88.3486 116.78C88.1966 112.209 84.3871 108.552 79.8162 108.552H79.5117C79.2068 108.552 78.7494 108.552 78.4454 108.704C72.1982 98.343 69.6081 87.068 70.5224 74.8782C71.1314 65.7359 74.1789 57.8125 79.5117 51.2604C83.9301 45.6227 92.4625 42.8801 98.2527 42.7281C114.403 42.4231 121.259 62.5359 121.717 70.6118C123.697 71.0687 127.049 72.1355 129.335 72.8974C127.506 48.2138 112.27 35.4146 97.6433 35.4146C83.9301 35.4146 71.2838 45.3187 66.2555 59.9462C59.247 79.4495 63.8179 98.191 72.3502 112.971C71.5888 114.037 71.1314 115.714 71.2838 117.39V117.389Z" fill="#764ABC"/>
</svg>
