<svg width="411" height="242" viewBox="0 0 411 242" fill="none" xmlns="http://www.w3.org/2000/svg">
<mask id="mask0" mask-type="alpha" maskUnits="userSpaceOnUse" x="0" y="0" width="411" height="242">
<rect x="0.587158" y="0.759155" width="410.063" height="240.942" fill="white"/>
</mask>
<g mask="url(#mask0)">
<path d="M-99.4583 150.321C-216.009 195.646 -288.238 85.0258 -302.807 75.3133V-46.0934H646.439V57.2389C624.856 35.1159 616.54 111.573 470.204 75.3133C287.285 29.9881 373.553 163.271 160.085 96.2519C-27.784 37.2698 17.0922 104.996 -99.4583 150.321Z" fill="#3178C6" fill-opacity="0.05"/>
<path d="M-67.0327 149.594C-183.583 194.919 -274.62 52.0305 -289.188 42.318V-52.1623L748.366 -42.4497V24.2436C726.783 2.12059 748.253 60.5037 601.917 24.2436C418.998 -21.0816 490.219 178.681 276.75 111.662C88.8814 52.6801 49.5179 104.269 -67.0327 149.594Z" fill="#3178C6" fill-opacity="0.05"/>
<path d="M-274.234 139.882C-390.784 185.207 -481.821 42.318 -496.389 32.6055V-61.8748L541.165 -52.1623V14.5311C519.582 -7.59195 541.052 50.7912 394.716 14.5311C211.797 -30.7941 283.018 168.969 69.5496 101.95C-118.319 42.9676 -157.683 94.5564 -274.234 139.882Z" fill="#3178C6" fill-opacity="0.05"/>
<path d="M-239.531 101.428C-356.081 146.753 -428.31 36.133 -442.879 26.4205V-94.9862H506.367V8.34607C484.784 -13.7769 476.467 62.6806 330.132 26.4205C147.212 -18.9047 233.481 114.378 20.0126 47.3591C-167.856 -11.6231 -122.98 56.103 -239.531 101.428Z" fill="#3178C6" fill-opacity="0.05"/>
<path d="M-207.105 100.701C-323.656 146.027 -414.692 3.13769 -429.261 -6.57485V-101.055L608.294 -91.3426V-24.6492C586.71 -46.7722 608.18 11.6109 461.845 -24.6492C278.925 -69.9744 350.146 129.789 136.678 62.7694C-51.1911 3.78726 -90.5546 55.3761 -207.105 100.701Z" fill="#3178C6" fill-opacity="0.05"/>
<path d="M-414.306 90.9888C-530.857 136.314 -621.893 -6.57484 -636.462 -16.2874V-110.768L401.093 -101.055V-34.3618C379.509 -56.4848 400.979 1.89836 254.644 -34.3618C71.7244 -79.687 142.945 120.076 -70.5229 53.0569C-258.392 -5.92528 -297.756 45.6636 -414.306 90.9888Z" fill="#3178C6" fill-opacity="0.05"/>
</g>
</svg>
