<svg xmlns="http://www.w3.org/2000/svg" width="194" height="194" viewBox="0 0 194 194">
  <g id="ts" transform="translate(-588 -540.001)">
    <circle id="Ellipse_9" data-name="Ellipse 9" cx="97" cy="97" r="97" transform="translate(588 540.001)" fill="#007acc"/>
    <path id="Path_49" data-name="Path 49" d="M87.7,189.428v6.461h20.611v58.661h14.626V195.889h20.611v-6.342a49.4,49.4,0,0,0-.159-6.54c0-.119-12.565-.159-27.824-.159l-27.745.119v6.5l-.119-.04Zm92.629-6.619a19.191,19.191,0,0,1,9.909,5.668c1.467,1.585,3.646,4.36,3.805,5.073,0,.238-6.857,4.875-11.019,7.452-.159.119-.793-.555-1.427-1.585-2.061-2.933-4.162-4.2-7.452-4.439-4.756-.317-7.927,2.18-7.927,6.342a6.263,6.263,0,0,0,.713,3.012c1.07,2.18,3.052,3.488,9.2,6.183,11.336,4.875,16.251,8.086,19.223,12.683,3.369,5.153,4.122,13.238,1.863,19.3-2.537,6.619-8.72,11.1-17.559,12.565a49.442,49.442,0,0,1-12.089-.119c-6.342-1.189-12.406-4.36-16.132-8.442-1.467-1.585-4.281-5.826-4.122-6.1l1.506-.951L154.764,236l4.479-2.616,1.031,1.387a21.568,21.568,0,0,0,5.945,5.787c5.153,2.656,12.049,2.3,15.458-.793a5.94,5.94,0,0,0,2.1-4.756,6.116,6.116,0,0,0-1.189-4.043c-1.268-1.744-3.805-3.171-10.939-6.342-8.2-3.488-11.693-5.708-14.943-9.116a22.516,22.516,0,0,1-4.36-7.927,30.354,30.354,0,0,1-.238-10.186c1.7-7.927,7.689-13.476,16.251-15.062a38.417,38.417,0,0,1,12.049.4l-.079.079Z" transform="translate(542.378 422.858)" fill="#fff"/>
  </g>
</svg>
