<svg width="2886" height="904" viewBox="0 0 2886 904" fill="none" xmlns="http://www.w3.org/2000/svg">
<path d="M302.253 0.538574V708.576H0.44751V181.851L302.253 0.538574Z" fill="#09B4BF"/>
<path d="M302.253 903.897V195.859H0.44751V722.584L302.253 903.897Z" fill="#09B4BF"/>
<path d="M301.105 0.538574V708.576H602.911V181.851L301.105 0.538574Z" fill="#4A53A0"/>
<path d="M301.105 903.897V195.859H602.911V722.584L301.105 903.897Z" fill="#4A53A0"/>
<path d="M110.075 193.821L301.23 308.301L492.359 193.821L301.23 82.9861L110.075 193.821Z" fill="#090F42"/>
<path d="M1096.85 461.158C1096.85 499.118 1089.83 534.738 1075.79 568.018C1062.27 600.778 1043.29 629.898 1018.85 655.378C994.412 680.338 966.072 700.098 933.832 714.658C901.592 728.698 866.752 735.718 829.312 735.718H670.192V187.378H829.312C866.752 187.378 901.592 194.658 933.832 209.218C966.592 223.258 995.192 243.018 1019.63 268.498C1044.07 293.458 1063.05 322.578 1076.57 355.858C1090.09 388.618 1096.85 423.718 1096.85 461.158ZM1033.67 461.158C1033.67 421.638 1024.57 385.758 1006.37 353.518C988.692 321.278 964.512 295.537 933.832 276.297C903.152 257.057 868.312 247.437 829.312 247.437H732.592V674.878H829.312C868.312 674.878 903.152 665.258 933.832 646.018C964.512 626.258 988.692 600.258 1006.37 568.018C1024.57 535.258 1033.67 499.638 1033.67 461.158ZM1376.02 743.518C1338.06 743.518 1302.7 736.238 1269.94 721.678C1237.7 707.118 1209.36 687.358 1184.92 662.398C1159.96 637.438 1140.46 608.318 1126.42 575.038C1112.9 541.238 1106.14 503.798 1106.14 462.718C1106.14 423.198 1113.16 386.278 1127.2 351.958C1141.24 317.638 1160.48 287.998 1184.92 263.038C1209.36 238.078 1237.7 218.317 1269.94 203.757C1302.7 189.197 1338.06 181.917 1376.02 181.917C1413.98 181.917 1449.86 189.718 1483.66 205.318C1517.98 220.918 1549.18 244.577 1577.26 276.297L1528.12 316.858C1483.4 267.978 1432.7 243.537 1376.02 243.537C1346.9 243.537 1320.12 249.258 1295.68 260.698C1271.24 272.138 1249.4 287.738 1230.16 307.498C1211.44 327.258 1196.62 350.398 1185.7 376.918C1175.3 402.918 1170.1 431.518 1170.1 462.718C1170.1 494.438 1175.3 523.558 1185.7 550.078C1196.62 576.078 1211.44 598.698 1230.16 617.938C1249.4 637.698 1271.24 653.298 1295.68 664.738C1320.12 676.178 1346.9 681.898 1376.02 681.898C1432.7 681.898 1483.4 657.458 1528.12 608.578L1577.26 649.138C1549.18 680.858 1517.98 704.518 1483.66 720.118C1449.86 735.718 1413.98 743.518 1376.02 743.518Z" fill="black" fill-opacity="0.8"/>
<path d="M2085.92 462.718C2085.92 502.238 2078.9 539.158 2064.86 573.478C2051.34 607.278 2032.36 636.918 2007.92 662.398C1983.48 687.878 1955.14 707.898 1922.9 722.458C1890.66 736.498 1856.08 743.518 1819.16 743.518C1781.72 743.518 1746.88 736.238 1714.64 721.678C1682.4 707.118 1654.06 687.098 1629.62 661.618C1605.18 635.618 1585.94 605.718 1571.9 571.918C1558.38 538.118 1551.62 501.718 1551.62 462.718C1551.62 424.238 1558.64 388.098 1572.68 354.298C1586.72 319.978 1606.22 290.078 1631.18 264.598C1656.14 238.597 1684.74 218.317 1716.98 203.757C1749.22 189.197 1783.28 181.917 1819.16 181.917C1856.08 181.917 1890.66 189.457 1922.9 204.537C1955.14 219.097 1983.48 239.377 2007.92 265.377C2032.36 291.378 2051.34 321.278 2064.86 355.078C2078.9 388.878 2085.92 424.758 2085.92 462.718ZM2022.74 462.718C2022.74 432.558 2017.28 404.218 2006.36 377.698C1995.96 350.658 1981.4 326.998 1962.68 306.718C1944.48 285.918 1922.9 269.797 1897.94 258.357C1873.5 246.397 1847.24 240.417 1819.16 240.417C1790.56 240.417 1763.78 246.397 1738.82 258.357C1714.38 269.797 1692.8 285.918 1674.08 306.718C1655.88 326.998 1641.32 350.658 1630.4 377.698C1620 404.218 1614.8 432.558 1614.8 462.718C1614.8 492.878 1620 521.478 1630.4 548.518C1641.32 575.558 1655.88 599.478 1674.08 620.278C1692.8 640.558 1714.38 656.678 1738.82 668.638C1763.78 680.078 1790.56 685.798 1819.16 685.798C1847.76 685.798 1874.28 680.078 1898.72 668.638C1923.16 656.678 1944.74 640.558 1963.46 620.278C1982.18 599.478 1996.74 575.818 2007.14 549.298C2017.54 522.258 2022.74 493.398 2022.74 462.718ZM2535.71 461.158C2535.71 499.118 2528.69 534.738 2514.65 568.018C2501.13 600.778 2482.15 629.898 2457.71 655.378C2433.27 680.338 2404.93 700.098 2372.69 714.658C2340.45 728.698 2305.61 735.718 2268.17 735.718H2109.05V187.378H2268.17C2305.61 187.378 2340.45 194.658 2372.69 209.218C2405.45 223.258 2434.05 243.018 2458.49 268.498C2482.93 293.458 2501.91 322.578 2515.43 355.858C2528.95 388.618 2535.71 423.718 2535.71 461.158ZM2472.53 461.158C2472.53 421.638 2463.43 385.758 2445.23 353.518C2427.55 321.278 2403.37 295.537 2372.69 276.297C2342.01 257.057 2307.17 247.437 2268.17 247.437H2171.45V674.878H2268.17C2307.17 674.878 2342.01 665.258 2372.69 646.018C2403.37 626.258 2427.55 600.258 2445.23 568.018C2463.43 535.258 2472.53 499.638 2472.53 461.158ZM2853.73 735.718H2558.89V189.717H2853.73V245.878H2620.51V441.658H2809.27V494.698H2620.51V679.558H2853.73V735.718Z" fill="black" fill-opacity="0.8"/>
</svg>
