<svg width="129" height="31" viewBox="0 0 129 31" fill="none" xmlns="http://www.w3.org/2000/svg">
<path d="M110.523 26.8995C110.157 26.6165 109.86 26.2552 109.656 25.843C109.452 25.4307 109.346 24.9783 109.347 24.52C109.34 24.1332 109.412 23.749 109.558 23.3896C109.703 23.0303 109.92 22.7028 110.195 22.4262C110.47 22.1496 110.798 21.9294 111.161 21.7782C111.523 21.6271 111.912 21.548 112.305 21.5456C113.096 21.5456 113.583 21.7604 114.188 22.2065C115.466 23.1319 116.542 23.6111 117.971 23.6111C120.426 23.6111 121.872 22.2065 121.872 18.9677V3.74865C121.872 2.92911 122.203 2.14314 122.792 1.56364C123.382 0.984132 124.182 0.658569 125.016 0.658569C125.849 0.658569 126.649 0.984132 127.239 1.56364C127.828 2.14314 128.159 2.92911 128.159 3.74865V19.2652C128.159 22.5866 127.184 25.0653 125.469 26.7508C123.721 28.4693 121.149 29.3617 118.055 29.3617C114.827 29.3286 112.305 28.2545 110.523 26.8995Z" fill="black"/>
<path d="M105.866 28.3867C106.595 28.0159 107.144 27.3761 107.393 26.6077C107.642 25.8394 107.571 25.0053 107.195 24.2886L95.6951 2.4928C95.3178 1.77671 94.6668 1.23704 93.8851 0.992283C93.1034 0.747525 92.2548 0.817683 91.5256 1.18736C90.7971 1.55816 90.248 2.19798 89.999 2.96633C89.75 3.73469 89.8214 4.56877 90.1975 5.28544L101.697 27.0813C102.074 27.7974 102.725 28.337 103.507 28.5818C104.289 28.8266 105.137 28.7564 105.866 28.3867Z" fill="black"/>
<path d="M80.0093 28.3867C79.2807 28.0159 78.7317 27.3761 78.4826 26.6077C78.2336 25.8394 78.305 25.0053 78.6811 24.2886L90.1807 2.4928C90.5579 1.77671 91.2089 1.23704 91.9906 0.992283C92.7723 0.747525 93.6209 0.817683 94.3501 1.18736C95.0786 1.55816 95.6277 2.19798 95.8767 2.96633C96.1257 3.73469 96.0544 4.56877 95.6782 5.28544L84.1787 27.0813C83.7966 27.7927 83.1456 28.3282 82.3657 28.5724C81.5858 28.8165 80.7396 28.7499 80.0093 28.3867Z" fill="#783AFA"/>
<path d="M82.8001 13.2503C83.5286 12.8795 84.0777 12.2396 84.3267 11.4713C84.5757 10.7029 84.5044 9.86886 84.1282 9.15219L80.5304 2.37713C80.1532 1.66105 79.5022 1.12138 78.7205 0.87662C77.9388 0.631862 77.0902 0.702025 76.361 1.0717C75.6325 1.4425 75.0834 2.08232 74.8344 2.85068C74.5854 3.61903 74.6567 4.45311 75.0329 5.16978L78.597 11.9448C78.981 12.6631 79.6381 13.2033 80.4252 13.4478C81.2124 13.6923 82.0659 13.6213 82.8001 13.2503Z" fill="black"/>
<path d="M70.0901 6.2108H53.7654C53.0439 6.20819 52.3527 5.92531 51.8425 5.42385C51.3323 4.92238 51.0445 4.243 51.0419 3.53383V3.45121C51.0445 2.74203 51.3323 2.06265 51.8425 1.56119C52.3527 1.05972 53.0439 0.776843 53.7654 0.774231H70.0901C70.8116 0.776843 71.5028 1.05972 72.013 1.56119C72.5232 2.06265 72.811 2.74203 72.8137 3.45121V3.53383C72.8152 3.88578 72.7457 4.23454 72.6094 4.55999C72.473 4.88544 72.2725 5.18113 72.0193 5.43C71.7661 5.67887 71.4652 5.876 71.1341 6.01001C70.803 6.14402 70.4482 6.21227 70.0901 6.2108Z" fill="#783AFA"/>
<path d="M70.0901 28.8329H53.7654C53.0439 28.8302 52.3527 28.5474 51.8425 28.0459C51.3323 27.5444 51.0445 26.8651 51.0419 26.1559V26.0733C51.0445 25.3641 51.3323 24.6847 51.8425 24.1833C52.3527 23.6818 53.0439 23.3989 53.7654 23.3963H70.0901C70.8116 23.3989 71.5028 23.6818 72.013 24.1833C72.5232 24.6847 72.811 25.3641 72.8137 26.0733V26.1559C72.8151 26.5078 72.7457 26.8566 72.6094 27.1821C72.473 27.5075 72.2725 27.8032 72.0193 28.0521C71.7661 28.3009 71.4652 28.4981 71.1341 28.6321C70.803 28.7661 70.4482 28.8343 70.0901 28.8329Z" fill="#783AFA"/>
<path d="M60.7087 17.497H53.8157C53.0855 17.4938 52.3861 17.2073 51.8697 16.6997C51.3534 16.1922 51.0618 15.5048 51.0585 14.787C51.0618 14.0693 51.3534 13.3818 51.8697 12.8743C52.3861 12.3668 53.0855 12.0802 53.8157 12.077H60.7087C61.439 12.0802 62.1384 12.3668 62.6548 12.8743C63.1711 13.3818 63.4627 14.0693 63.4659 14.787C63.4671 15.1432 63.3966 15.4962 63.2585 15.8255C63.1204 16.1548 62.9173 16.454 62.661 16.7059C62.4048 16.9578 62.1003 17.1574 61.7653 17.2931C61.4302 17.4289 61.0712 17.4982 60.7087 17.497Z" fill="#783AFA"/>
<path d="M25.1511 3.94694C25.149 3.54058 25.229 3.13785 25.3862 2.76204C25.5435 2.38622 25.775 2.04477 26.0673 1.75743C26.3597 1.47008 26.7071 1.24255 27.0894 1.08797C27.4718 0.933392 27.8815 0.854835 28.295 0.856849H38.2142C41.8456 0.856849 44.6532 1.86485 46.5362 3.71559C48.1334 5.28542 48.9908 7.48318 48.9908 10.1436V10.2263C48.9908 14.6218 46.7548 17.3648 43.2746 18.7529L47.629 23.9581C48.2342 24.7348 48.6545 25.3627 48.6545 26.3377C48.6545 28.0562 47.1751 29.1964 45.6956 29.1964C44.2666 29.1964 43.3419 28.5189 42.619 27.5935L36.4489 19.9261H31.422V26.0567C31.422 26.8763 31.0908 27.6623 30.5012 28.2418C29.9116 28.8213 29.112 29.1468 28.2782 29.1468C27.4443 29.1468 26.6447 28.8213 26.0551 28.2418C25.4655 27.6623 25.1343 26.8763 25.1343 26.0567V3.94694H25.1511ZM37.7939 14.4731C40.8537 14.4731 42.6022 12.8702 42.6022 10.5237V10.4411C42.6022 7.79715 40.7192 6.42561 37.6762 6.42561H31.4389V14.4896L37.7939 14.4731Z" fill="black"/>
<path d="M2.01748 26.6021C1.65216 26.3326 1.35563 25.9833 1.15138 25.5818C0.94712 25.1803 0.840731 24.7376 0.840626 24.2886C0.838368 23.9112 0.912615 23.5371 1.05904 23.1882C1.20546 22.8393 1.42112 22.5225 1.69344 22.2564C1.96575 21.9903 2.28927 21.7801 2.6451 21.6382C3.00094 21.4963 3.38197 21.4255 3.76595 21.4299C4.40791 21.411 5.03701 21.6094 5.54804 21.9917C7.7 23.5616 10.0873 24.52 12.8445 24.52C15.4168 24.52 16.9635 23.512 16.9635 21.8761V21.7934C16.9635 20.2236 15.9884 19.4139 11.2138 18.2241C5.46398 16.77 1.74848 15.2167 1.74848 9.66444V9.58182C1.74848 4.49227 5.88429 1.13779 11.7349 1.13779C15.2151 1.13779 18.2076 2.03011 20.7799 3.63299C21.323 3.95849 21.7427 4.44987 21.9748 5.03199C22.2069 5.6141 22.2386 6.25491 22.0651 6.85643C21.8916 7.45794 21.5224 7.98705 21.0141 8.36284C20.5057 8.73863 19.8861 8.94043 19.25 8.93736C18.6851 8.94237 18.1306 8.78748 17.6528 8.4912C15.5681 7.30143 13.6347 6.62393 11.6677 6.62393C9.24673 6.62393 8.00262 7.69802 8.00262 9.06956V9.15218C8.00262 11.0029 9.2131 11.5978 14.1727 12.8371C19.9561 14.3244 23.2177 16.3734 23.2177 21.2481V21.3308C23.2177 26.883 18.8969 30.0061 12.7605 30.0061C8.91125 29.9677 5.16476 28.7806 2.01748 26.6021Z" fill="black"/>
</svg>
